# xmcd
#
# Track frame offsets:
#	150
#	3002
#	25032
#	41235
#	54842
#	75165
#	77735
#	97697
#	118600
#	139647
#	162345
#	185315
#	209760
#	231490
#	255162
#	277067
#	298655
#	324075
#
# Disc length: 4357 seconds
#
# Revision: 0
# Processed by: cddbd v1.5.1PL0 Copyright (c) Steve Scherf et al.
# Submitted via: dBpowerAMP V4.0
#
DISCID=e0110312
DTITLE=Ice-T - Home Invasion
DYEAR=1900
DGENRE=Rap
TTITLE0=Warning
TTITLE1=It's On
TTITLE2=Ice M.F. T
TTITLE3=Home Invasion
TTITLE4=G Style
TTITLE5=Question And Answer
TTITLE6=Watch The Ice Break
TTITLE7=Race War
TTITLE8=That's How I'm Living
TTITLE9=I Ain't New Ta This
TTITLE10=Pimp Behind The Wheels (Evil E The Great)
TTITLE11=Gotta Lotta Love
TTITLE12=Hit The Fan
TTITLE13=Dephts Of Hell
TTITLE14=99 Problems
TTITLE15=Funky Gripsta
TTITLE16=Message To The Soldier
TTITLE17=Ain't A Damn Thing Changed
EXTD=
EXTT0=
EXTT1=
EXTT2=
EXTT3=
EXTT4=
EXTT5=
EXTT6=
EXTT7=
EXTT8=
EXTT9=
EXTT10=
EXTT11=
EXTT12=
EXTT13=
EXTT14=
EXTT15=
EXTT16=
EXTT17=
PLAYORDER=
